<svg xmlns="http://www.w3.org/2000/svg" width="17.454" height="84.271" viewBox="0 0 17.454 84.271"><path d="M7.863 35.01h1.73v20.94h-1.73zM9.596 35.08c.982-4.07 7.836-11.123 7.836-11.123v-.338l-.332-.42s-5.146 5.244-6.22 6.434c-1.06 1.174-1.28 1.627-1.284 1.633v-3.924c.982-4.066 7.836-11.117 7.836-11.117v-.34l-.332-.415s-5.146 5.245-6.22 6.433C9.82 23.08 9.6 23.53 9.597 23.538V19.61c.982-4.065 7.836-11.115 7.836-11.115v-.342L17.1 7.74s-5.146 5.243-6.22 6.43C9.82 15.348 9.6 15.8 9.597 15.807V11.88C10.578 7.812 17.432.76 17.432.76V.42L17.1 0s-5.146 5.244-6.22 6.433C9.81 7.62 9.595 8.07 9.595 8.07l-.865 1-.865-1s-.217-.45-1.29-1.638C5.503 5.245.358 0 .358 0L.025.414v.34s6.86 7.06 7.84 11.126V15.803s-.217-.452-1.29-1.636C5.506 12.978.358 7.734.358 7.734l-.332.42v.34s6.86 7.06 7.84 11.123v3.92s-.217-.452-1.29-1.638C5.506 20.712.358 15.466.358 15.466l-.33.42v.34s6.86 7.06 7.84 11.122v3.918c-.003-.007-.224-.46-1.286-1.634C5.508 28.447.363 23.2.363 23.2H.358l-.332.42v.34s6.86 7.058 7.84 11.124"/><path d="M7.86 55.862v7.908c-.01-.014-1.56-2.35-3.688-4.48C2.036 57.153.282 56.2.282 56.2l-.306.343.027.65c.488.512 1.35 1.562 2.107 2.88 1.258 2.175 2.064 4.426 2.625 6.114 2.03 6.146 2.803 13.96 3.035 16.89l.045.602.04.036.555.558h.632l.56-.558.036-.036c.01-.167.024-.368.045-.6.23-2.933 1.005-10.744 3.032-16.892.562-1.688 1.367-3.94 2.62-6.115.764-1.314 1.624-2.367 2.11-2.88l.03-.65-.307-.343s-1.75.952-3.887 3.09c-2.13 2.13-3.675 4.467-3.686 4.48v-7.908H7.86z"/></svg>