<svg xmlns="http://www.w3.org/2000/svg" width="50" height="50" viewBox="0 0 50 50"><path d="M2.5 41.353V7.897c0-1.58.566-2.938 1.7-4.073 1.132-1.13 2.49-1.698 4.07-1.698h33.458c1.58 0 2.938.567 4.07 1.698 1.135 1.134 1.7 2.492 1.7 4.073v33.456c0 1.583-.565 2.94-1.7 4.073-1.132 1.134-2.49 1.7-4.07 1.7H8.27c-1.578 0-2.937-.565-4.07-1.7-1.134-1.133-1.7-2.49-1.7-4.073zm5.01-1.2c0 .508.17.932.514 1.275.343.34.766.514 1.275.514h31.315c.488 0 .907-.173 1.26-.514.354-.343.527-.768.527-1.275V21.17h-3.956c.39 1.23.586 2.51.586 3.838 0 2.46-.625 4.73-1.875 6.81-1.25 2.082-2.948 3.726-5.098 4.937-2.148 1.21-4.493 1.817-7.03 1.817-3.85 0-7.14-1.324-9.875-3.97-2.734-2.646-4.102-5.845-4.102-9.593 0-1.33.195-2.61.584-3.84H7.51v18.984zm8.496-15.616c0 2.423.883 4.49 2.65 6.197 1.77 1.71 3.893 2.565 6.373 2.565 2.498 0 4.633-.855 6.4-2.566 1.767-1.707 2.65-3.774 2.65-6.197 0-2.418-.884-4.486-2.65-6.195-1.768-1.71-3.902-2.565-6.4-2.565-2.48 0-4.605.855-6.374 2.565-1.767 1.71-2.65 3.776-2.65 6.195zM33.26 13.99c0 .568.196 1.046.588 1.437.39.39.868.586 1.435.586h5.098c.567 0 1.047-.196 1.437-.586.39-.39.584-.87.584-1.436V9.16c0-.55-.192-1.022-.583-1.422-.39-.4-.87-.6-1.436-.6h-5.097c-.566 0-1.044.2-1.435.6-.392.4-.587.873-.587 1.42v4.833z"/></svg>