<svg xmlns="http://www.w3.org/2000/svg" width="50" height="50" viewBox="0 0 50 50"><path d="M50 9.493c-1.84.817-3.816 1.368-5.89 1.616 2.116-1.27 3.744-3.28 4.508-5.677-1.98 1.177-4.176 2.03-6.514 2.49-1.87-1.993-4.538-3.24-7.485-3.24-5.668 0-10.26 4.595-10.26 10.258 0 .806.09 1.588.266 2.34C16.1 16.85 8.54 12.77 3.483 6.56c-.884 1.515-1.39 3.277-1.39 5.16 0 3.558 1.81 6.7 4.564 8.536-1.684-.053-3.266-.515-4.648-1.282-.002.042-.002.086-.002.128 0 4.97 3.535 9.115 8.23 10.06-.86.234-1.768.358-2.703.358-.66 0-1.304-.063-1.93-.183 1.305 4.076 5.094 7.043 9.582 7.123-3.51 2.75-7.932 4.39-12.738 4.39-.83 0-1.645-.048-2.45-.14 4.54 2.908 9.933 4.608 15.726 4.608 18.867 0 29.185-15.632 29.185-29.187 0-.447-.007-.887-.028-1.327 2.006-1.447 3.744-3.253 5.118-5.31z"/></svg>