<svg xmlns="http://www.w3.org/2000/svg" width="140" height="72" viewBox="226.542 174.991 140 72"><path d="M102.387-197.96c-.16-1.305-.83-2.538-2.067-3.557-.928-.768-1.88-1.29-2.75-1.852-.684-.442-1.198-.91-1.303-1.537-.052-.323-.047-.6.006-.838.178-.787.836-1.073 1.446-1.13.082-.008.166-.012.252-.012 1.55 0 1.97 1.688 2.036 1.87.038.107.07.214.098.322h2.02c-.016-.11-.118-.602-.157-.737-.704-2.455-2.998-3.824-5.175-3.847-.02 0-.346 0-.646.032-1.66.176-3.187 1.058-3.958 2.305-.043.07-.23.403-.342.705-.522 1.42-.256 3.044.475 4.343.564 1.005 1.34 1.71 2.26 2.382.778.568 1.587 1.138 2.134 1.95.293.436.45.97.448 1.498 0 .65-.34 1.315-.908 1.62-1.228.657-2.713.134-3.26-1.46-.012-.04-.15-.433-.15-.433h-1.96c.016.17.04.333.068.494.522 2.892 3.077 4.136 5.77 4.136.09 0 .18-.005.268-.007 2.305-.118 4.49-1.765 5.265-4.247.206-.66.21-1.342.127-1.998zM116.496-209.038h-10.97v2.414h2.96v14.678h5.046v-14.678h2.964M87-191.946h-5.046v-17.093H87v17.094zM73.092-209.038h-7.048v17.093h5.045v-7.294h2.002c2.706 0 4.9-2.193 4.9-4.898s-2.194-4.9-4.9-4.9zm.132 7.386h-2.136v-4.972h2.136c1.235 0 2.236 1.11 2.236 2.485s-1 2.488-2.236 2.488zM44.03-206.77v-2.266h-8.318v13.014h3.843v-5.59h2.276v-1.836h-2.275v-3.322M54.618-206.77v-2.266h-8.32v13.014h8.32v-2.267h-4.476v-3.32h2.276v-1.838h-2.276v-3.322M48.79-211.305l.073.916h5.755l-.146-1.83M31.19-196.022h2.045l-2.845-13.015h-3.743l-3.053 13.015h4.01l.456-2.13h2.676l.453 2.13zm-2.736-3.967l.948-4.43.942 4.43h-1.89zM122.08-193.148l.098 1.202h7.56l-.194-2.403M125.832-209.28c-3.655 0-6.62 2.964-6.62 6.62v.256c0 3.657 2.964 6.62 6.62 6.62 3.657 0 6.62-2.963 6.62-6.62v-.256c0-3.656-2.963-6.62-6.62-6.62zm1.96 6.812c0 .82-.037 1.79-.282 2.754-.118.463-.48 1.876-1.678 1.876s-1.56-1.413-1.678-1.876c-.244-.96-.278-1.924-.28-2.74v-.086-.095c.002-.76.037-1.756.28-2.714.12-.462.48-1.873 1.678-1.873 1.2 0 1.56 1.41 1.678 1.874.245.96.28 1.922.28 2.737v.145zM96.736-209.28h.06-.054-.006zM96.736-209.28h.06-.054-.006zM96.736-209.28h.06-.054-.006zM96.736-209.28h.06-.054-.006zM96.736-209.28h.06-.054-.006zM96.736-209.28h.06-.054-.006zM20.073-200.253c-.1.98-.62 2.3-1.994 2.3-.952 0-1.72-.754-1.72-2.022 0-.003-.013-.92-.013-1.204v-3.51c0-.395.012-.393.012-.395 0-1.266.768-2.02 1.72-2.02 1.374 0 1.892 1.32 1.993 2.298h1.643c-.063-2.86-2.41-4.472-4.593-4.472-2.542 0-4.605 2.063-4.605 4.607v4.288c0 2.54 2.062 4.604 4.605 4.604 2.25 0 4.484-1.662 4.6-4.474h-1.65c-.007.075-.017.15-.03.224l.03-.223zM145.99-209.038v11.445c0 .108-.013.227-.013.365 0 1.84-.9 3.04-2.254 3.027-1.248-.014-2.252-.933-2.252-2.18 0-.075-.008-.228-.008-.45v-12.21h-5.046v11.283c0 3.342 2.71 6.05 6.05 6.05 3.343 0 5.92-2.2 6.05-6.05.002-.043 0-.13 0-.26v-11.022h-2.525v.002z"/><g><path d="M96.736-209.28h.06-.054-.006z"/></g><g><path d="M314.27 184.74v-3.848h-14.114v22.085h6.518v-9.484h3.86v-3.115h-3.86v-5.637M332.236 184.74v-3.848h-14.114v22.085h14.114v-3.847h-7.595v-5.637h3.86v-3.115h-3.86v-5.637M322.347 177.044l.124 1.555h9.766l-.25-3.11M292.478 202.977h3.472l-4.827-22.085h-6.352l-5.18 22.085h6.807l.773-3.613h4.54l.768 3.613zm-4.642-6.732l1.608-7.516 1.6 7.515h-3.208zM273.617 195.8c-.173 1.66-1.05 3.898-3.384 3.898-1.612 0-2.92-1.28-2.92-3.427 0-.004-.02-1.563-.02-2.044v-5.956c0-.672.02-.667.02-.672 0-2.147 1.308-3.427 2.92-3.427 2.334 0 3.21 2.238 3.384 3.9h2.787c-.11-4.85-4.09-7.587-7.794-7.587-4.316 0-7.815 3.497-7.815 7.813v7.274c0 4.316 3.5 7.814 7.815 7.814 3.82 0 7.607-2.82 7.803-7.588l-2.796.004c-.014.123-.03.25-.05.38l.05-.38zM312.155 217.205h-18.62v4.095h5.028v24.907h8.56V221.3h5.032M262.103 246.207h-8.565v-29.002h8.565v29.002zM238.503 217.205h-11.96v29.002h8.56V233.83h3.4c4.59 0 8.313-3.722 8.313-8.314 0-4.59-3.722-8.31-8.313-8.31zm.225 12.535h-3.625v-8.44h3.625c2.095 0 3.794 1.89 3.794 4.22s-1.7 4.22-3.794 4.22zM321.63 244.166l.163 2.04h12.83l-.33-4.08M327.993 216.794c-6.2 0-11.232 5.028-11.232 11.233v.436c0 6.204 5.032 11.233 11.233 11.233 6.205 0 11.234-5.03 11.234-11.233v-.436c0-6.205-5.03-11.233-11.234-11.233zm3.325 11.556c-.002 1.397-.06 3.042-.477 4.674-.202.787-.814 3.183-2.848 3.183s-2.645-2.396-2.845-3.183c-.418-1.626-.477-3.262-.48-4.65v-.145-.163c.006-1.288.062-2.975.48-4.6.198-.79.81-3.183 2.845-3.183 2.033 0 2.646 2.394 2.85 3.183.413 1.625.472 3.257.476 4.64v.243zM362.202 217.205v19.42c0 .183-.025.384-.025.62 0 3.12-1.527 5.155-3.824 5.137-2.117-.02-3.82-1.582-3.82-3.7 0-.125-.015-.386-.015-.76v-20.717h-8.563v19.142c0 5.67 4.598 10.266 10.268 10.266 5.672 0 10.043-3.732 10.266-10.266.002-.072 0-.222 0-.44v-18.7H362.2zM288.212 236.002c-.275-2.216-1.41-4.308-3.51-6.04-1.577-1.3-3.19-2.188-4.665-3.14-1.162-.75-2.035-1.543-2.21-2.61-.09-.55-.08-1.02.01-1.422.3-1.336 1.42-1.82 2.45-1.917.144-.014.288-.02.433-.02 2.63 0 3.343 2.862 3.453 3.173.066.183.12.367.17.548h3.427c-.026-.184-.202-1.02-.27-1.252-1.193-4.168-5.087-6.49-8.778-6.526-.032 0-.59 0-1.097.053-2.82.298-5.408 1.79-6.715 3.91-.074.12-.393.682-.58 1.194-.89 2.41-.436 5.166.805 7.37.957 1.704 2.276 2.904 3.833 4.04 1.323.965 2.698 1.93 3.623 3.31.5.74.766 1.645.766 2.544-.003 1.106-.575 2.23-1.544 2.75-2.084 1.113-4.603.228-5.528-2.48-.02-.065-.26-.73-.26-.73h-3.32c.025.286.066.563.115.837.883 4.908 5.22 7.02 9.79 7.02.15 0 .3-.01.45-.014 3.912-.2 7.62-2.993 8.934-7.203.35-1.125.357-2.287.218-3.395z"/></g></svg>