<svg xmlns="http://www.w3.org/2000/svg" width="136" height="21" viewBox="178.479 198.053 136 21"><path d="M268.35 212.668c-.162-1.305-.832-2.538-2.068-3.557-.928-.767-1.88-1.29-2.75-1.85-.684-.444-1.198-.91-1.303-1.54-.053-.322-.048-.6.005-.837.178-.787.836-1.073 1.446-1.13.084-.008.168-.012.254-.012 1.55 0 1.97 1.69 2.036 1.87.038.108.07.215.098.323h2.02c-.016-.11-.118-.602-.157-.737-.702-2.455-2.996-3.824-5.173-3.847-.02 0-.346 0-.646.03-1.66.176-3.185 1.058-3.956 2.305-.043.07-.23.403-.342.705-.522 1.42-.256 3.044.475 4.343.564 1.005 1.34 1.71 2.26 2.382.778.568 1.587 1.138 2.134 1.95.295.436.453.97.45 1.498 0 .65-.34 1.315-.908 1.62-1.228.657-2.713.134-3.26-1.46-.012-.04-.15-.433-.15-.433h-1.96c.017.17.042.333.07.494.52 2.892 3.076 4.136 5.77 4.136.09 0 .178-.005.267-.007 2.304-.118 4.49-1.765 5.264-4.247.204-.66.207-1.342.125-1.998zM282.458 201.59h-10.97v2.414h2.96v14.678h5.046v-14.678h2.964M252.963 218.682h-5.047V201.59h5.047v17.092zM239.054 201.59h-7.048v17.093h5.045v-7.294l2.004-.002c2.706 0 4.9-2.193 4.9-4.898s-2.194-4.9-4.9-4.9zm.132 7.386h-2.136v-4.972h2.136c1.235 0 2.236 1.11 2.236 2.485s-1 2.486-2.236 2.486zM209.992 203.858v-2.266h-8.318v13.014h3.843v-5.59h2.275v-1.836h-2.275v-3.322M220.58 203.858v-2.266h-8.32v13.014h8.32v-2.267h-4.476v-3.323h2.276v-1.837h-2.276v-3.322M214.752 199.323l.073.916h5.755l-.146-1.833M197.15 214.606h2.047l-2.845-13.015h-3.743l-3.054 13.016h4.01l.456-2.13h2.676l.453 2.13zm-2.734-3.967l.948-4.43.942 4.43h-1.89zM288.042 217.48l.098 1.202h7.56l-.194-2.403M291.793 201.35c-3.655 0-6.62 2.962-6.62 6.618v.256c0 3.657 2.964 6.62 6.62 6.62 3.657 0 6.62-2.963 6.62-6.62v-.256c0-3.656-2.962-6.62-6.62-6.62zm1.96 6.81c0 .82-.037 1.79-.282 2.754-.117.463-.478 1.876-1.677 1.876-1.198 0-1.56-1.413-1.678-1.876-.244-.96-.278-1.924-.28-2.74v-.086-.095c.002-.76.037-1.756.28-2.714.12-.464.48-1.875 1.678-1.875 1.2 0 1.56 1.41 1.678 1.874.246.957.28 1.92.282 2.735v.145zM262.698 201.35h.06-.054-.006zM262.698 201.35h.06-.054-.006zM262.698 201.35h.06-.054-.006zM262.698 201.35h.06-.054-.006zM262.698 201.35h.06-.054-.006zM262.698 201.35h.06-.054-.006zM186.035 210.375c-.1.98-.62 2.3-1.994 2.3-.95 0-1.72-.754-1.72-2.022 0-.003-.01-.92-.01-1.204v-3.51c0-.397.01-.395.01-.397 0-1.266.77-2.02 1.72-2.02 1.376 0 1.894 1.32 1.995 2.298h1.643c-.063-2.858-2.41-4.47-4.593-4.47-2.542 0-4.605 2.06-4.605 4.605v4.288c0 2.54 2.062 4.604 4.605 4.604 2.25 0 4.484-1.66 4.6-4.473h-1.65c-.007.075-.017.15-.03.224l.03-.223zM311.953 201.59v11.445c0 .108-.014.227-.014.365 0 1.84-.9 3.04-2.255 3.027-1.248-.013-2.252-.932-2.252-2.18 0-.074-.01-.227-.01-.448v-12.21h-5.045v11.28c0 3.343 2.71 6.05 6.05 6.05 3.343 0 5.92-2.2 6.05-6.05.002-.042 0-.13 0-.26v-11.02h-2.525z"/><g><path d="M262.698 201.35h.06-.054-.006z"/></g><g><path d="M-365.937-259.07v-14.216h-52.137v81.58h24.082v-35.033h14.264v-11.514h-14.264v-20.817M-299.574-259.07v-14.216h-52.138v81.58h52.138v-14.214h-28.056v-20.82h14.265v-11.514h-14.265v-20.817M-336.1-287.504l.458 5.74h36.068l-.918-11.476M-446.434-191.706h12.824l-17.83-81.58h-23.462l-19.14 81.58h25.143l2.86-13.35h16.765l2.84 13.35zm-17.143-24.867l5.942-27.76 5.91 27.76h-11.852zM-516.107-218.222c-.636 6.137-3.876 14.4-12.5 14.4-5.96 0-10.785-4.725-10.785-12.658 0-.02-.07-5.775-.07-7.552v-22c0-2.483.07-2.466.07-2.483 0-7.935 4.826-12.657 10.784-12.657 8.625 0 11.865 8.263 12.5 14.4h10.297c-.402-17.916-15.112-28.026-28.793-28.026-15.943 0-28.865 12.923-28.865 28.864v26.875c0 15.94 12.922 28.865 28.865 28.865 14.112 0 28.105-10.413 28.822-28.03h-10.327c-.047.46-.11.93-.186 1.407l.186-1.404zM-373.755-139.152h-68.774v15.124h18.575v92.01h31.623v-92.01h18.577M-558.636-32.017h-31.64v-107.135h31.64v107.135zM-645.816-139.152H-690v107.134h31.623V-77.74l12.56-.002c16.96 0 30.707-13.748 30.707-30.707 0-16.956-13.748-30.702-30.706-30.702zm.83 46.3l-13.39.004v-31.174c5.473-.006 12.127-.01 13.39-.01 7.74 0 14.016 6.98 14.016 15.59s-6.276 15.59-14.017 15.59zM-338.75-39.556l.604 7.538h47.387l-1.206-15.07M-315.244-140.667c-22.914 0-41.494 18.58-41.494 41.494v1.61c0 22.916 18.58 41.494 41.494 41.494 22.918 0 41.494-18.577 41.494-41.492v-1.612c0-22.913-18.576-41.492-41.494-41.492zm12.287 42.687c-.01 5.157-.23 11.237-1.77 17.266-.744 2.907-3.002 11.754-10.518 11.754-7.514 0-9.77-8.847-10.514-11.754-1.536-6.008-1.755-12.053-1.77-17.175v-.537-.596c.02-4.757.235-10.997 1.77-17 .743-2.905 3-11.75 10.515-11.75 7.516 0 9.773 8.845 10.518 11.752 1.533 6 1.754 12.033 1.77 17.143v.897zM-188.88-139.152v71.733c0 .68-.088 1.423-.088 2.29 0 11.532-5.646 19.05-14.125 18.977-7.826-.07-14.125-5.842-14.125-13.665 0-.458-.043-1.423-.043-2.803v-76.532h-31.634v70.71c0 20.942 16.98 37.922 37.924 37.922s37.104-13.79 37.922-37.923c.01-.266 0-.82 0-1.627v-69.082h-15.832zM-462.187-69.714c-1.022-8.188-5.218-15.916-12.97-22.31-5.82-4.8-11.786-8.077-17.23-11.6-4.292-2.774-7.516-5.702-8.163-9.645-.33-2.023-.3-3.765.034-5.25 1.11-4.933 5.243-6.724 9.06-7.08.523-.05 1.056-.075 1.595-.075 9.71 0 12.34 10.576 12.752 11.726.24.672.44 1.348.62 2.022h12.66c-.097-.683-.743-3.775-.988-4.625-4.41-15.396-18.796-23.974-32.43-24.108-.123-.003-2.176 0-4.05.197-10.414 1.1-19.975 6.618-24.807 14.44-.276.447-1.45 2.523-2.146 4.415-3.272 8.903-1.604 19.082 2.977 27.23 3.536 6.29 8.41 10.722 14.166 14.92 4.883 3.56 9.956 7.134 13.376 12.223 1.843 2.74 2.828 6.078 2.824 9.394-.006 4.088-2.123 8.248-5.7 10.16-7.698 4.117-17.004.84-20.42-9.158-.083-.24-.962-2.71-.962-2.71h-12.27c.1 1.065.25 2.093.43 3.1 3.266 18.13 19.283 25.93 36.162 25.93.562 0 1.114-.028 1.67-.047 14.45-.744 28.15-11.062 33-26.614 1.293-4.15 1.32-8.436.81-12.534z"/></g></svg>