<?xml version="1.0" encoding="utf-8"?>
<!-- Generator: Adobe Illustrator 16.0.0, SVG Export Plug-In . SVG Version: 6.00 Build 0)  -->
<!DOCTYPE svg PUBLIC "-//W3C//DTD SVG 1.1//EN" "http://www.w3.org/Graphics/SVG/1.1/DTD/svg11.dtd">
<svg version="1.1" id="Layer_1" xmlns="http://www.w3.org/2000/svg" xmlns:xlink="http://www.w3.org/1999/xlink" x="0px" y="0px"
	 width="50px" height="50px" viewBox="0 0 50 50" enable-background="new 0 0 50 50" xml:space="preserve">
<path d="M50,9.493c-1.84,0.817-3.816,1.368-5.891,1.616c2.117-1.269,3.745-3.279,4.509-5.676c-1.979,1.177-4.176,2.029-6.514,2.491
	c-1.87-1.994-4.538-3.241-7.485-3.241c-5.667,0-10.259,4.595-10.259,10.258c0,0.805,0.091,1.587,0.266,2.338
	C16.099,16.852,8.539,12.769,3.483,6.561c-0.884,1.514-1.389,3.276-1.389,5.158c0,3.559,1.81,6.7,4.563,8.537
	c-1.684-0.053-3.266-0.515-4.648-1.282c-0.001,0.042-0.001,0.086-0.001,0.128c0,4.97,3.535,9.115,8.229,10.059
	C9.378,29.396,8.47,29.52,7.535,29.52c-0.659,0-1.304-0.063-1.929-0.183c1.304,4.076,5.093,7.043,9.581,7.123
	c-3.509,2.751-7.932,4.391-12.738,4.391c-0.829,0-1.644-0.049-2.448-0.141c4.539,2.908,9.932,4.608,15.725,4.608
	c18.867,0,29.185-15.632,29.185-29.187c0-0.448-0.008-0.888-0.029-1.328C46.888,13.356,48.626,11.55,50,9.493z"/>
</svg>
