<?xml version="1.0" encoding="utf-8"?>
<!-- Generator: Adobe Illustrator 16.0.0, SVG Export Plug-In . SVG Version: 6.00 Build 0)  -->
<!DOCTYPE svg PUBLIC "-//W3C//DTD SVG 1.1//EN" "http://www.w3.org/Graphics/SVG/1.1/DTD/svg11.dtd">
<svg version="1.1" id="Layer_1" xmlns="http://www.w3.org/2000/svg" xmlns:xlink="http://www.w3.org/1999/xlink" x="0px" y="0px"
	 width="50px" height="50px" viewBox="0 0 50 50" enable-background="new 0 0 50 50" xml:space="preserve">
<path d="M2.5,41.353V7.897c0-1.581,0.566-2.938,1.699-4.073c1.133-1.131,2.492-1.698,4.071-1.698h33.458
	c1.581,0,2.938,0.567,4.071,1.698c1.134,1.134,1.7,2.492,1.7,4.073v33.456c0,1.583-0.566,2.94-1.7,4.073
	c-1.133,1.134-2.49,1.7-4.071,1.7H8.271c-1.579,0-2.938-0.565-4.071-1.7C3.066,44.293,2.5,42.936,2.5,41.353z M7.511,40.153
	c0,0.508,0.17,0.932,0.513,1.275c0.343,0.341,0.766,0.514,1.275,0.514h31.316c0.488,0,0.907-0.173,1.26-0.514
	c0.354-0.343,0.527-0.768,0.527-1.275V21.169h-3.956c0.391,1.231,0.586,2.511,0.586,3.839c0,2.461-0.625,4.731-1.875,6.811
	c-1.25,2.081-2.948,3.725-5.098,4.936c-2.147,1.211-4.492,1.817-7.03,1.817c-3.849,0-7.139-1.324-9.874-3.97
	c-2.734-2.646-4.102-5.845-4.102-9.593c0-1.328,0.195-2.608,0.584-3.839H7.509v18.984H7.511z M16.006,24.537
	c0,2.423,0.883,4.49,2.65,6.197c1.769,1.711,3.893,2.565,6.373,2.565c2.499,0,4.634-0.854,6.4-2.565
	c1.768-1.707,2.651-3.774,2.651-6.197c0-2.418-0.884-4.486-2.651-6.195c-1.767-1.71-3.901-2.565-6.4-2.565
	c-2.48,0-4.604,0.855-6.373,2.565C16.889,20.051,16.006,22.118,16.006,24.537L16.006,24.537z M33.261,13.991
	c0,0.567,0.195,1.045,0.587,1.436c0.391,0.391,0.868,0.586,1.435,0.586h5.098c0.566,0,1.046-0.196,1.436-0.586
	c0.391-0.391,0.584-0.869,0.584-1.436V9.159c0-0.548-0.193-1.021-0.584-1.421c-0.39-0.4-0.869-0.601-1.436-0.601h-5.098
	c-0.566,0-1.044,0.2-1.435,0.601c-0.392,0.4-0.587,0.873-0.587,1.421V13.991z"/>
</svg>
