<?xml version="1.0" encoding="utf-8"?>
<!-- Generator: Adobe Illustrator 16.0.0, SVG Export Plug-In . SVG Version: 6.00 Build 0)  -->
<!DOCTYPE svg PUBLIC "-//W3C//DTD SVG 1.1//EN" "http://www.w3.org/Graphics/SVG/1.1/DTD/svg11.dtd">
<svg version="1.1" id="Layer_2" xmlns="http://www.w3.org/2000/svg" xmlns:xlink="http://www.w3.org/1999/xlink" x="0px" y="0px"
	 width="291.801px" height="170.018px" viewBox="0 0 291.801 170.018" enable-background="new 0 0 291.801 170.018"
	 xml:space="preserve">
	 <title>CTC &ndash; Cotton Thomspon Cole</title>
<path d="M270.951,76.291c0.588,0.339,1.312,0.339,1.9,0l18-10.393c0.588-0.339,0.949-0.967,0.949-1.646V43.469
	c0-0.679-0.361-1.306-0.949-1.646L218.85,0.254c-0.588-0.339-1.312-0.339-1.9,0l-17.051,9.844L182.85,0.254
	c-0.588-0.339-1.312-0.339-1.9,0L91.898,51.666L20.85,10.645c-0.588-0.339-1.312-0.339-1.9,0l-18,10.394
	C0.361,21.378,0,22.005,0,22.684v103.86c0,0.679,0.361,1.306,0.949,1.646l72,41.573c0.293,0.169,0.621,0.254,0.949,0.254
	s0.656-0.085,0.951-0.254l18-10.394c0.588-0.339,0.949-0.967,0.949-1.646v-20.786c0-0.679-0.361-1.306-0.949-1.646L39.8,104.664
	V67.545l33.149,19.14c0.588,0.339,1.312,0.339,1.9,0l17.049-9.844l17.051,9.841c0.588,0.34,1.312,0.339,1.9,0l15.148-8.747v59.002
	c0,0.679,0.363,1.306,0.951,1.646l18,10.393c0.299,0.173,0.625,0.255,0.947,0.255c0.166,0,0.33-0.022,0.488-0.064
	c0.021-0.006,0.043-0.019,0.064-0.026c0.135-0.042,0.27-0.091,0.395-0.163c0.002-0.001,0.004-0.001,0.006-0.002l18-10.395
	c0.588-0.339,0.949-0.967,0.949-1.646v-81.98l32.199-18.589v79.786c0,0.679,0.363,1.306,0.951,1.646l72.002,41.571
	c0.295,0.169,0.623,0.254,0.951,0.254s0.656-0.085,0.949-0.254l18-10.394c0.588-0.339,0.949-0.967,0.949-1.646v-20.784
	c0-0.679-0.361-1.306-0.949-1.646l-53.051-30.629V57.152L270.951,76.291z M217.898,4.094L288,44.566v18.589l-14.197,8.199V53.86
	c0-0.679-0.363-1.306-0.951-1.646l-69.152-39.922L217.898,4.094z M181.898,4.094l14.199,8.198l-87.148,50.316
	c-0.588,0.339-0.951,0.967-0.951,1.646v17.493L93.799,73.55V54.957L181.898,4.094z M19.899,14.484l70.099,40.473V73.55
	l-14.199,8.198V64.253c0-0.679-0.361-1.306-0.949-1.646L5.698,22.684L19.899,14.484z M3.799,25.976l68.199,39.375v16.398
	L20.85,52.215c-0.588-0.339-1.312-0.339-1.9,0c-0.588,0.339-0.95,0.967-0.95,1.646v62.292c0,0.679,0.362,1.306,0.95,1.646
	l53.049,30.629v16.399L3.799,125.448V25.976z M36.949,107.407l53.049,30.628v18.592l-14.199,8.199v-17.496
	c0-0.679-0.361-1.306-0.949-1.646L21.8,115.056V57.152l14.199,8.199v40.411C35.999,106.44,36.361,107.067,36.949,107.407z
	 M129.799,75.741l14.199-8.198v76.496l-14.199-8.198V75.741z M162.949,52.213c-0.588,0.339-0.951,0.967-0.951,1.646v81.98
	l-14.199,8.2V64.252c0-0.679-0.361-1.306-0.949-1.646c-0.588-0.339-1.312-0.339-1.9,0l-33.15,19.139V65.351l86.199-49.768v16.396
	L162.949,52.213z M201.799,15.583l68.203,39.375v16.397L218.85,41.823c-0.588-0.339-1.312-0.339-1.9,0
	c-0.588,0.339-0.951,0.967-0.951,1.646v62.291c0,0.679,0.363,1.306,0.951,1.646l53.053,30.63v16.398l-68.203-39.377V15.583z
	 M234.951,97.014L288,127.644v18.59l-14.197,8.199v-17.495c0-0.679-0.363-1.306-0.951-1.646l-53.053-30.63V46.759L234,54.958v40.411
	C234,96.047,234.363,96.675,234.951,97.014z"/>
</svg>
